# xmcd
#
# Track frame offsets:
#	150
#	23415
#	42436
#	58637
#	82337
#	110385
#	125552
#	141720
#	158116
#	176912
#	190606
#	207105
#	224820
#	240751
#	258271
#
# Disc length: 3692 seconds
#
# Revision: 1
# Processed by: cddbd v1.5.2PL0 Copyright (c) Steve Scherf et al.
# Submitted via: audiograbber 1.83.01
#
DISCID=da0e6a0f
DTITLE=Pat Mcmanus Band - 2pm
DYEAR=2009
DGENRE=Blues
TTITLE0=Chasing Away The Blues
TTITLE1=Trouble
TTITLE2=Best Friends
TTITLE3=Rough Diamond
TTITLE4=Las Of The Jungle
TTITLE5=Big Titts Long Hair
TTITLE6=Voodoo Boogie
TTITLE7=Addicted To The Rush
TTITLE8=Dogging Me Around
TTITLE9=So Bored
TTITLE10=Whole Damn World
TTITLE11=Satisfaction Guaranteed
TTITLE12=Born To Be Bad
TTITLE13=Lucky Man
TTITLE14=Blowin In The Wind
EXTD=
EXTT0=
EXTT1=
EXTT2=
EXTT3=
EXTT4=
EXTT5=
EXTT6=
EXTT7=
EXTT8=
EXTT9=
EXTT10=
EXTT11=
EXTT12=
EXTT13=
EXTT14=
PLAYORDER=
